<?xml version="1.0" encoding="UTF-8"?>
<svg version="1.1" xmlns="http://www.w3.org/2000/svg" width="48" height="48">
<path d="M0 0 C4.50558639 -0.68941739 8.51556437 -0.91508777 13 0 C15.89683472 2.47375006 17.8305988 5.06140708 20.0078125 8.1796875 C21.78678676 10.69815694 23.34978058 12.36484912 25.75 14.25 C33.65341151 20.84538769 33.65341151 20.84538769 34.20605469 25.87548828 C34.4247469 30.59469311 34.25468734 35.28545426 34 40 C30.37 40 26.74 40 23 40 C22.773125 38.453125 22.54625 36.90625 22.3125 35.3125 C21.33508338 30.42541689 19.93173735 28.20025133 16 25 C14.33333333 23.33333333 12.66666667 21.66666667 11 20 C10.195625 19.21625 9.39125 18.4325 8.5625 17.625 C7.2940625 16.325625 7.2940625 16.325625 6 15 C5.45601563 14.47535156 4.91203125 13.95070313 4.3515625 13.41015625 C1.24987775 10.19925725 -0.38308491 8.13855979 -0.375 3.5625 C-0.25125 2.386875 -0.1275 1.21125 0 0 Z " fill="#844EF7" transform="translate(1,4)"/>
<path d="M0 0 C3.3 0 6.6 0 10 0 C10 10.89 10 21.78 10 33 C6.65134543 31.88378181 6.28433855 31.32525771 4.4375 28.5 C2.68380605 25.74463406 2.68380605 25.74463406 0 24 C0 16.08 0 8.16 0 0 Z " fill="#844EF7" transform="translate(37,4)"/>
<path d="M0 0 C9.83434952 8.42944244 9.83434952 8.42944244 10.22021484 12.08789062 C10.2960202 14.65000994 10.2612966 17.18793342 10.1875 19.75 C10.17396484 20.63816406 10.16042969 21.52632812 10.14648438 22.44140625 C10.11121891 24.627865 10.05741412 26.81401072 10 29 C6.7 29 3.4 29 0 29 C0 19.43 0 9.86 0 0 Z " fill="#844EF7" transform="translate(1,15)"/>
<path d="M0 0 C3.3 0 6.6 0 10 0 C10 6.6 10 13.2 10 20 C6.28631113 18.76210371 5.22645819 17.14775123 3 14 C3 13.34 3 12.68 3 12 C2.01 11.67 1.02 11.34 0 11 C0 7.37 0 3.74 0 0 Z " fill="#844EF7" transform="translate(25,4)"/>
<path d="M0 0 C5.61674371 2.24669749 6.68582675 3.26546679 10 8 C10 9.32 10 10.64 10 12 C6.7 12 3.4 12 0 12 C0 8.04 0 4.08 0 0 Z " fill="#844EF7" transform="translate(37,32)"/>
</svg>
